<?xml version="1.0" encoding="utf-8"?>
<!-- Generator: Adobe Illustrator 23.0.0, SVG Export Plug-In . SVG Version: 6.00 Build 0)  -->
<svg version="1.1" id="Layer_1" xmlns="http://www.w3.org/2000/svg" xmlns:xlink="http://www.w3.org/1999/xlink" x="0px" y="0px"
	 viewBox="0 0 128 128" style="enable-background:new 0 0 128 128;" xml:space="preserve">
<style type="text/css">
	.st0{fill-rule:evenodd;clip-rule:evenodd;fill:#2163E8;}
	.st1{opacity:0.8;fill-rule:evenodd;clip-rule:evenodd;fill:#FFFFFF;enable-background:new    ;}
	.st2{clip-path:url(#SVGID_2_);fill:url(#SVGID_3_);}
</style>
<g id="logo_icon">
	<path class="st0" d="M-191.01,17.17l-0.88-0.02c-5.17-0.1-10.39-0.2-15.67-0.3c-6.15,0.16-11.61-4.04-13.23-10.16
		c-0.23-0.99-0.33-2.01-0.31-3.03c0.04-23.07,0.1-46.74,0.17-71.01c-0.23-5.53,3.23-10.52,8.38-12.07c1.86-0.65,3.84-0.84,5.78-0.56
		c34.97,3.94,67.66,7.61,98.29,11.07c5.47,0.7,9.76,5.18,10.37,10.83c0.11,0.96,0.13,1.93,0.06,2.9
		c-1.44,21.34-2.86,42.19-4.26,62.58c-0.18,4.55-2.9,8.58-6.97,10.33c-1.5,0.69-3.13,1-4.77,0.92c-16.96-0.33-34.55-0.67-52.77-1.03
		c-0.5-0.04-0.99,0.17-1.33,0.55c-6.43,6.62-12.9,13.27-19.41,19.95c-0.71,0.98-2.06,1.18-3.01,0.44c-0.26-0.2-0.48-0.47-0.63-0.77
		c-0.14-0.42-0.2-0.86-0.17-1.31c0.11-6.1,0.22-12.25,0.35-18.44C-191.02,17.77-191.02,17.51-191.01,17.17z"/>
	<path id="_" class="st1" d="M-185.34-24.33c-0.22,9.58,3.7,14.52,11.63,14.88c7.93,0.36,12-3.36,12.27-11.22
		c0.27-7.7-3.21-11.83-10.51-12.33c1.26-4.33,4.22-7.93,8.16-9.9l0.3-8.82C-177.64-48.64-185.01-39.43-185.34-24.33L-185.34-24.33
		L-185.34-24.33z M-130.58-34.7c0.48-9.28-2.98-14.29-10.47-14.95c-7.74-0.68-11.81,3-12.13,11.02c-0.3,7.72,3.07,11.8,10.04,12.25
		c-1.25,4.18-4.1,7.66-7.88,9.65l-0.34,8.31C-138.16-11.72-131.32-20.41-130.58-34.7L-130.58-34.7L-130.58-34.7z"/>
</g>
<g>
	<defs>
		<path id="SVGID_1_" d="M57.51,46.88H8.99l21.78,32.02c47.5-21.45,87.26-29.2,87.26-29.2S46.06,73.6,0.29,120.79l44.05-22.33
			l21.87,28.52l11.44-49.43L128,46.88H84.97L94.13,0.2L57.51,46.88z"/>
	</defs>
	<clipPath id="SVGID_2_">
		<use xlink:href="#SVGID_1_"  style="overflow:visible;"/>
	</clipPath>
	
		<linearGradient id="SVGID_3_" gradientUnits="userSpaceOnUse" x1="-414.3553" y1="544.2567" x2="-413.7766" y2="544.2567" gradientTransform="matrix(130.7813 -226.5198 -226.5198 -130.7813 177498.25 -22546.9688)">
		<stop  offset="0" style="stop-color:#00B3FF"/>
		<stop  offset="0.2119" style="stop-color:#00C1C9"/>
		<stop  offset="0.5965" style="stop-color:#00DA6D"/>
		<stop  offset="0.8663" style="stop-color:#00EA33"/>
		<stop  offset="0.995" style="stop-color:#00F01C"/>
		<stop  offset="1" style="stop-color:#00F01C"/>
	</linearGradient>
	<polygon class="st2" points="-54.61,95.29 32.22,-55.11 182.9,31.89 96.07,182.29 	"/>
</g>
</svg>
