<?xml version="1.0" encoding="utf-8"?>
<!-- Generator: Adobe Illustrator 23.0.0, SVG Export Plug-In . SVG Version: 6.00 Build 0)  -->
<svg version="1.1" id="Shape_logo" xmlns="http://www.w3.org/2000/svg" xmlns:xlink="http://www.w3.org/1999/xlink" x="0px" y="0px"
	 viewBox="0 0 159.9 67.9" style="enable-background:new 0 0 159.9 67.9;" xml:space="preserve">
<style type="text/css">
	.st0{clip-path:url(#SVGID_2_);fill:url(#SVGID_3_);}
	.st1{fill:#0E67AA;}
	.st2{fill:#12CC3A;}
</style>
<g>
	<g>
		<defs>
			<path id="SVGID_1_" d="M24.6,19.5H4.3l9.1,13.4C33.3,24,50,20.7,50,20.7s-30.1,10-49.3,29.7l18.4-9.3L28.3,53l4.8-20.7l21.1-12.8
				h-18L40,0L24.6,19.5z"/>
		</defs>
		<clipPath id="SVGID_2_">
			<use xlink:href="#SVGID_1_"  style="overflow:visible;"/>
		</clipPath>
		
			<linearGradient id="SVGID_3_" gradientUnits="userSpaceOnUse" x1="-382.3732" y1="-416.9673" x2="-382.131" y2="-416.9673" gradientTransform="matrix(130.7813 -226.5198 226.5198 130.7813 144468.9844 -32027.5371)">
			<stop  offset="0" style="stop-color:#00B3FF"/>
			<stop  offset="0.2119" style="stop-color:#00C1C9"/>
			<stop  offset="0.5965" style="stop-color:#00DA6D"/>
			<stop  offset="0.8663" style="stop-color:#00EA33"/>
			<stop  offset="0.995" style="stop-color:#00F01C"/>
			<stop  offset="1" style="stop-color:#00F01C"/>
		</linearGradient>
		<polygon class="st0" points="-22.3,39.8 14.1,-23.1 77.1,13.3 40.8,76.2 		"/>
	</g>
</g>
<path class="st1" d="M41,39.4l2.2-2.3c1.2,1.1,2.5,1.7,3.8,1.7c0.8,0,1.4-0.4,1.4-0.9s-0.3-0.7-2.1-1.4c-2-0.7-3.2-1.6-3.2-3.4
	c0-2.5,2.2-4.2,5.3-4.2c2.2,0,3.9,0.7,5.1,1.9L51.4,33c-0.9-0.8-2-1.4-3.3-1.4c-0.8,0-1.4,0.4-1.4,0.9s0.4,0.7,2.1,1.4
	c1.9,0.7,3.2,1.6,3.2,3.5c0,2.6-2.2,4.3-5.3,4.3C44.4,41.6,42.4,40.8,41,39.4"/>
<polygon class="st1" points="58.1,32 54.4,32 55.2,29 66.1,29 65.3,32 61.6,32 59.1,41.4 55.6,41.4 "/>
<path class="st1" d="M73.7,28.9h-3.4l-8.7,12.5h3.8l1.5-2.2h4.8l0.3,2.2h3.6L73.7,28.9z M68.6,36.5l2.3-3.6l0.4,3.6H68.6z"/>
<path class="st1" d="M89.8,32.8c0-1-0.3-1.9-1-2.5C88,29.4,86.7,29,84.6,29h-4.7l-3.3,12.5H80l1-3.8h1.5l1.7,3.8H88l-1.9-4.2
	C88.7,36.5,89.8,34.9,89.8,32.8 M83.7,34.9h-2l0.8-3h1.9c0.7,0,1.2,0.1,1.5,0.4c0.2,0.2,0.3,0.5,0.3,0.8
	C86.3,34.3,85.3,34.9,83.7,34.9"/>
<polygon class="st2" points="98.5,32 94.8,32 95.6,29 106.5,29 105.7,32 102,32 99.4,41.4 96,41.4 "/>
<path class="st2" d="M113.1,28.7c-4.3,0-7.4,3.5-7.4,7.3c0,3.2,2.4,5.6,5.9,5.6c4.3,0,7.4-3.5,7.4-7.3
	C119.1,31.1,116.7,28.7,113.1,28.7 M111.9,38.6c-1.8,0-2.7-1.2-2.7-2.8c0-1.9,1.4-4,3.6-4c1.8,0,2.7,1.2,2.7,2.8
	C115.5,36.4,114.1,38.6,111.9,38.6"/>
<path class="st2" d="M131.3,30.6c-0.9-0.9-2.5-1.6-4.9-1.6h-4L119,41.4h5c2.9,0,5-0.8,6.5-2.3c1.4-1.4,2-3,2-4.9
	C132.6,32.7,132.2,31.5,131.3,30.6 M128,37.1c-0.8,0.8-2.1,1.3-3.6,1.3h-1.1L125,32h1c1.2,0,2,0.3,2.4,0.8c0.4,0.4,0.6,0.9,0.6,1.7
	C129.1,35.5,128.7,36.4,128,37.1"/>
<path class="st2" d="M143.5,28.9h-3.4l-8.7,12.5h3.8l1.5-2.2h4.8l0.3,2.2h3.6L143.5,28.9z M138.5,36.5l2.3-3.6l0.4,3.6H138.5z"/>
<polygon class="st2" points="148.9,36.6 146.4,29 150.1,29 151.4,33.6 155.1,29 159.2,29 152.3,37 151.1,41.4 147.6,41.4 "/>
<path class="st1" d="M41,47.5l0.5-0.4c0.3,0.3,0.6,0.5,1.1,0.5c0.4,0,0.7-0.2,0.7-0.5c0-0.2-0.2-0.3-0.7-0.6c-0.6-0.2-1-0.5-1-1
	c0-0.7,0.6-1.2,1.4-1.2c0.6,0,1.1,0.2,1.4,0.6L44,45.4c-0.3-0.3-0.6-0.4-1-0.4s-0.7,0.2-0.7,0.5c0,0.2,0.2,0.4,0.7,0.6
	c0.6,0.2,0.9,0.5,0.9,1c0,0.7-0.7,1.2-1.4,1.2C41.9,48.2,41.4,47.9,41,47.5 M46.7,45h-1.2l0.2-0.6h3L48.6,45h-1.2l-0.8,3.1h-0.7
	L46.7,45z M50.9,44.4h0.6l0.6,3.7h-0.7l-0.1-0.9h-1.8l-0.6,0.9h-0.7L50.9,44.4z M51.2,46.7L51,45.2l-1,1.5H51.2z M54.2,44.4h1.3
	c0.5,0,0.9,0.1,1.1,0.4c0.2,0.2,0.3,0.4,0.3,0.7s-0.1,0.6-0.3,0.8s-0.5,0.4-0.9,0.4l0.7,1.4h-0.7L55,46.8h-0.8l-0.3,1.3h-0.7
	L54.2,44.4z M55.2,46.3c0.4,0,0.7-0.1,0.9-0.3c0.1-0.1,0.2-0.3,0.2-0.4c0-0.1,0-0.2-0.1-0.3C56,45.1,55.8,45,55.5,45h-0.8l-0.3,1.2
	L55.2,46.3L55.2,46.3z M60.1,46.6c0-1.2,1-2.3,2.2-2.3c0.7,0,1.2,0.3,1.4,0.8l-0.5,0.4c-0.2-0.3-0.5-0.6-1-0.6
	c-0.8,0-1.5,0.8-1.5,1.6c0,0.6,0.4,1,1,1c0.4,0,0.7-0.2,1-0.4l0.4,0.4c-0.4,0.3-0.8,0.6-1.4,0.6C60.8,48.2,60.1,47.6,60.1,46.6
	 M65.3,44.4H66L65.5,46h1.7l0.4-1.5h0.7l-1,3.7h-0.7l0.4-1.6h-1.7l-0.4,1.6h-0.7L65.3,44.4z M71.1,44.4h0.6l0.6,3.7h-0.7l-0.1-0.9
	h-1.8l-0.6,0.9h-0.7L71.1,44.4z M71.5,46.7l-0.2-1.5l-1,1.5H71.5z M74.5,44.4h0.6l1.3,2.6l0.7-2.6h0.6l-1,3.7h-0.5l-1.3-2.7
	l-0.7,2.7h-0.6L74.5,44.4z M79.2,44.4h0.6l1.3,2.6l0.7-2.6h0.6l-1,3.7h-0.5l-1.3-2.7l-0.7,2.7h-0.6L79.2,44.4z M84,44.4h2.7L86.5,45
	h-2.1l-0.3,1h1.8l-0.2,0.6h-1.8l-0.3,1h2.1l-0.2,0.6H83L84,44.4z M88.1,44.4h0.7L88,47.5h1.9l-0.2,0.6h-2.6L88.1,44.4z"/>
</svg>
